<?xml version="1.0" standalone="no"?>
<!DOCTYPE svg PUBLIC "-//W3C//DTD SVG 20010904//EN"
 "http://www.w3.org/TR/2001/REC-SVG-20010904/DTD/svg10.dtd">
<svg version="1.0" xmlns="http://www.w3.org/2000/svg"
 width="170.000000pt" height="172.000000pt" viewBox="0 0 170.000000 172.000000"
 preserveAspectRatio="xMidYMid meet">
<metadata>
Created by potrace 1.16, written by Peter Selinger 2001-2019
</metadata>
<g transform="translate(0.000000,172.000000) scale(0.100000,-0.100000)"
fill="#000000" stroke="none">
<path d="M701 1534 c-76 -16 -194 -70 -265 -121 -97 -69 -182 -181 -227 -297
-68 -177 -60 -346 26 -524 110 -227 346 -372 605 -372 106 0 206 24 315 76
105 51 224 166 277 269 65 126 81 187 82 310 1 166 -36 272 -142 414 -65 86
-114 125 -237 186 -143 72 -287 91 -434 59z m129 -75 c5 -19 13 -25 42 -27 29
-3 36 1 41 18 4 17 12 21 39 18 28 -3 34 -7 36 -31 5 -41 47 -55 78 -26 16 15
29 19 44 14 19 -6 21 -12 17 -40 -5 -28 -1 -36 19 -50 23 -15 27 -15 50 0 42
27 87 -18 53 -52 -8 -8 -6 -18 7 -37 18 -25 28 -27 66 -11 13 5 21 0 29 -19
10 -22 9 -29 -6 -46 -18 -20 -18 -23 -3 -48 13 -20 23 -26 42 -24 20 3 29 -3
38 -23 11 -24 10 -29 -6 -41 -11 -7 -23 -15 -27 -16 -5 -2 -5 -16 -1 -33 6
-23 16 -31 38 -35 24 -4 29 -10 29 -35 0 -25 -4 -30 -27 -33 -25 -3 -28 -8
-28 -38 0 -28 5 -36 25 -44 42 -16 30 -70 -16 -70 -23 0 -32 -6 -40 -27 -8
-21 -6 -30 11 -48 24 -26 25 -33 4 -56 -12 -13 -22 -16 -39 -9 -19 7 -26 4
-39 -15 -20 -30 -20 -34 1 -57 16 -18 15 -20 -5 -40 -19 -20 -24 -20 -47 -8
-23 12 -27 11 -50 -10 -19 -17 -22 -27 -15 -41 15 -26 12 -37 -11 -50 -17 -9
-25 -7 -42 9 -20 18 -25 19 -47 7 -17 -9 -27 -24 -30 -47 -6 -42 -44 -52 -70
-18 -14 18 -23 21 -48 15 -24 -5 -31 -12 -34 -33 -2 -21 -9 -28 -31 -30 -23
-3 -29 2 -38 27 -14 41 -63 45 -81 6 -8 -18 -19 -25 -39 -25 -24 0 -28 4 -31
32 -2 25 -9 34 -32 41 -25 8 -32 7 -48 -13 -16 -20 -22 -21 -44 -11 -21 9 -25
17 -22 43 2 26 -2 35 -24 47 -24 14 -28 14 -48 -4 -20 -18 -21 -18 -42 3 -20
19 -20 24 -8 47 12 23 11 27 -9 49 -20 21 -27 23 -47 14 -17 -8 -27 -8 -39 2
-20 17 -19 33 5 55 19 17 19 19 2 47 -12 21 -23 28 -39 25 -27 -5 -38 2 -47
30 -6 18 -2 25 18 35 27 12 30 19 20 55 -4 14 -15 23 -33 25 -21 2 -27 9 -29
35 -3 26 1 32 20 35 19 2 24 10 26 41 2 20 -1 37 -7 37 -18 0 -39 30 -34 49 3
13 15 21 36 23 23 2 33 10 40 32 8 25 6 31 -14 47 -20 15 -22 20 -11 44 10 23
16 25 45 20 29 -6 35 -3 45 20 10 23 10 32 -2 50 -13 20 -13 24 6 43 19 19 23
19 45 5 22 -15 25 -14 48 7 20 19 22 26 13 46 -20 44 26 71 64 37 27 -24 68
-1 68 39 0 35 45 63 61 38 22 -38 26 -40 57 -34 27 5 32 11 32 34 0 29 10 37
44 35 13 -1 23 -11 26 -26z"/>
<path d="M810 1334 c0 -6 7 -28 15 -47 23 -55 18 -105 -16 -177 -40 -84 -44
-155 -11 -200 l23 -31 -51 -64 c-29 -36 -53 -65 -54 -65 -1 0 -26 30 -55 66
l-53 65 27 40 c27 42 26 59 -6 59 -13 0 -19 -7 -19 -22 0 -13 -5 -30 -10 -38
-9 -13 -12 -12 -25 4 -22 29 -29 83 -17 124 7 23 38 65 82 110 74 77 99 117
80 136 -7 7 -10 5 -10 -7 0 -9 -40 -59 -89 -111 -66 -69 -92 -104 -101 -135
-13 -50 -1 -103 31 -137 l22 -23 -42 -55 c-24 -30 -49 -60 -57 -67 -8 -6 -14
-15 -14 -20 0 -5 54 -10 120 -11 l121 -3 -56 -67 c-30 -36 -55 -71 -55 -78 0
-8 33 -10 115 -8 63 2 115 1 115 -1 0 -2 -25 -35 -56 -73 -31 -38 -54 -71 -51
-74 2 -3 63 -3 135 -2 l131 3 -59 70 c-33 39 -59 74 -60 78 0 5 54 6 120 3 66
-3 120 -3 120 1 0 3 -27 39 -61 80 l-60 73 120 0 c67 0 121 2 121 6 0 3 -25
36 -55 74 -30 38 -55 73 -55 77 0 4 9 19 20 33 23 30 26 56 6 63 -18 7 -38
-16 -31 -35 3 -8 -1 -20 -9 -27 -31 -26 -45 52 -27 159 11 69 -4 122 -50 174
-22 25 -45 46 -51 46 -5 0 6 -18 25 -41 43 -49 59 -108 47 -169 -15 -75 -12
-132 10 -173 l21 -38 -52 -65 c-29 -35 -53 -64 -54 -64 -1 0 -25 29 -54 65
l-53 65 21 34 c28 45 28 68 -1 64 -16 -2 -22 -9 -20 -21 2 -10 -2 -25 -9 -33
-11 -13 -14 -12 -25 8 -20 36 -16 78 16 171 33 96 34 106 20 157 -11 36 -49
94 -50 74z m88 -673 c-29 -37 -56 -67 -60 -65 -3 2 -29 33 -57 69 l-51 65 110
0 111 0 -53 -69z"/>
</g>
</svg>
